<mxfile host="app.diagrams.net" modified="2024-03-27T08:51:47.279Z" agent="Mozilla/5.0 (Windows NT 10.0; Win64; x64) AppleWebKit/537.36 (KHTML, like Gecko) Chrome/122.0.0.0 Safari/537.36 Edg/122.0.0.0" version="24.0.7" etag="O8n-BtEmjmA6ii1T9Q8r" type="github">
  <diagram name="第 1 页" id="3wVo0rphu3h8U0b0IPdh">
    <mxGraphModel>
      <root>
        <mxCell id="0" />
        <mxCell id="1" parent="0" />
      </root>
    </mxGraphModel>
  </diagram>
</mxfile>
